<svg xmlns="http://www.w3.org/2000/svg">
  <symbol id="search" viewBox="0 0 18 18">
    <path fill-rule="evenodd" clip-rule="evenodd" d="M15.1474 7.82217C15.1474 3.78311 11.8624 0.5 7.82369 0.5C3.78384 0.5 0.5 3.78429 0.5 7.82217C0.5 11.8589 3.7862 15.1443 7.82369 15.1443L8.1381 15.1377L8.45017 15.1178C9.79691 15.0031 11.0684 14.5205 12.1442 13.7324L12.262 13.641L15.8339 17.2117L15.9313 17.297C16.1018 17.4277 16.3114 17.5 16.5245 17.5C16.7839 17.5 17.0368 17.3969 17.2217 17.205L17.3012 17.1147L17.3675 17.0169C17.586 16.6464 17.5365 16.1518 17.2151 15.8304L13.644 12.26L13.735 12.1419L13.9115 11.8903C14.7094 10.7003 15.1474 9.29411 15.1474 7.82217ZM2.45454 7.82217C2.45454 4.86413 4.86234 2.45787 7.82014 2.45787C10.7789 2.45787 13.1857 4.86514 13.1857 7.82217C13.1857 10.78 10.7782 13.19 7.82014 13.19C4.86311 13.19 2.45454 10.781 2.45454 7.82217Z"/>
  </symbol>
  <symbol id="logo" viewBox="0 0 105 29">
    <path fill-rule="evenodd" clip-rule="evenodd" d="M105 5.38258V26.803H95.0282V5.38258L98.2084 5.38258L100.203 0L102.197 0L97.1843 13.4564H99.3403L102.035 5.38258H105ZM91.6863 26.7481H79.8819V5.32765L88.9374 5.32765V20.1023L94.4892 20.1572L91.6863 26.7481ZM49.4276 27.8466C49.8654 27.8838 50.1798 27.8455 50.5545 27.7998L50.5545 27.7998L50.5547 27.7998L50.5547 27.7998C50.7336 27.778 50.9261 27.7545 51.1525 27.7367C51.2603 27.7367 51.9071 27.6269 52.2844 27.4621C53.2007 27.2424 54.0631 26.803 54.8178 26.3087C55.5185 25.8693 56.1653 25.3201 56.7582 24.661C56.866 24.4962 56.9873 24.3589 57.1086 24.2216C57.2299 24.0843 57.3511 23.947 57.4589 23.7822C57.944 23.1231 58.2675 22.3542 58.4831 21.5852C58.7526 20.4867 58.8065 19.4432 58.537 18.3996C58.2675 17.2462 57.7284 16.2027 57.4589 15.8182L57.3351 15.6637C56.9416 15.1722 56.7635 14.9498 56.2731 14.5C55.8276 14.0985 55.3332 13.7524 54.8676 13.4266L54.8676 13.4266C53.8684 12.7273 53.0022 12.1212 53.039 11.2595C53.0929 10.875 53.3624 10.5455 53.6858 10.3807C54.1709 10.161 54.71 10.2708 55.1951 10.4905C55.2633 10.5253 55.337 10.5601 55.4144 10.5966L55.4145 10.5967C55.5814 10.6755 55.7656 10.7624 55.9497 10.875L56.6504 11.3144L58.537 6.70076C57.944 6.26136 57.4589 5.98674 56.8121 5.6572C56.09 5.28926 55.1703 5.02193 54.4312 4.80707L54.4312 4.80706L54.3326 4.77841C53.6319 4.61364 53.3624 4.55871 52.7695 4.50379C51.8532 4.39394 50.8291 4.50379 50.0744 4.61364C49.1581 4.72348 48.134 5.16288 47.3255 5.60227C46.9482 5.82197 46.463 6.15152 46.1396 6.42614C45.924 6.59091 45.0616 7.4697 44.7382 7.85417C44.2531 8.34848 43.4985 9.88636 43.229 11.1496C43.1751 11.9186 43.1751 12.5777 43.2829 13.2917C43.4985 14.2254 43.768 14.9943 44.1453 15.4886C44.5765 16.2576 45.385 16.9167 46.1396 17.411C46.3596 17.6031 46.6163 17.7766 46.8775 17.9532L46.8776 17.9532L46.8776 17.9532L46.8776 17.9532L46.8777 17.9533L46.8777 17.9533L46.8777 17.9534C47.0645 18.0796 47.2536 18.2074 47.4333 18.3447C47.5309 18.4193 47.5871 18.463 47.6231 18.491L47.6582 18.5182C47.6715 18.5283 47.6809 18.5354 47.6905 18.5422C47.7042 18.5519 47.7183 18.5611 47.7441 18.5779L47.7441 18.578C47.796 18.6119 47.8952 18.6768 48.134 18.839C48.5113 19.1686 48.7808 19.553 48.7269 20.0473C48.6191 20.4867 48.3496 20.7614 47.9723 20.8712C47.3459 20.9694 46.7626 20.7165 46.1839 20.4656L46.1834 20.4654C46.1149 20.4356 46.0464 20.406 45.9779 20.3769C45.4581 20.1732 45.0569 19.9392 44.6424 19.6975L44.6423 19.6974L44.6422 19.6973L44.6421 19.6973C44.4979 19.6132 44.3521 19.5282 44.1992 19.4432L42.1509 24.4962C43.3368 25.5947 44.4148 26.2538 46.1396 26.9678C47.1638 27.572 47.9723 27.7367 49.4276 27.8466ZM32.5781 27.6928C31.9306 27.7439 31.3237 27.7917 30.6699 27.7917C29.1068 27.7367 27.4897 27.2424 26.1422 26.4735C25.9805 26.3087 25.8188 26.1989 25.6032 26.089C25.0103 25.6496 24.3634 25.1004 23.8244 24.4413C23.7755 24.3748 23.7117 24.3032 23.6421 24.2251C23.4817 24.0452 23.2904 23.8306 23.1776 23.5625C22.962 23.2879 22.6386 22.6288 22.5308 22.2443C22.3152 21.9148 22.0996 21.036 22.0457 20.1572V5.38258L28.46 5.38258L30.7238 0L32.9338 0.0549242L26.0344 17.3011H28.0826L34.982 0L37.2459 0L29.1607 20.1572H31.2628L37.192 5.4375L39.9949 5.4375V20.1572C39.941 20.9261 39.6176 22.0246 39.2402 22.9034C39.1513 23.1301 39.0255 23.3194 38.8631 23.5639L38.863 23.5641L38.8629 23.5642L38.8053 23.651L38.7551 23.7273C38.6566 23.9281 38.518 24.1086 38.3759 24.2935C38.2849 24.412 38.1925 24.5323 38.1083 24.661C37.5154 25.3201 36.9225 25.8693 36.1679 26.3087C35.521 26.7481 34.7125 27.1326 33.904 27.4072C33.6937 27.4684 33.4834 27.5126 33.2637 27.5587C33.0893 27.5953 32.909 27.6332 32.7182 27.6818L32.5781 27.6928ZM18.4882 5.27273V29L8.19302 21.9148V26.6932H0V3.46023L10.2413 10.4905V5.27273L18.4882 5.27273ZM68.6654 27.7449C68.2906 27.7905 67.9763 27.8288 67.5385 27.7917C66.0832 27.7367 65.2746 27.517 64.2505 26.9129C62.5257 26.1989 61.4476 25.5398 60.2618 24.4413L62.3101 19.3883C62.4631 19.4733 62.609 19.5584 62.7533 19.6425C63.1678 19.8843 63.569 20.1182 64.0888 20.322C64.1574 20.3511 64.2261 20.3809 64.2948 20.4106C64.8735 20.6616 65.4568 20.9145 66.0832 20.8163C66.4605 20.7064 66.73 20.4318 66.8378 19.9924C66.8917 19.4981 66.6222 19.1136 66.2449 18.7841C65.8872 18.5411 65.8427 18.5165 65.8014 18.4873C65.7681 18.4637 65.7369 18.4371 65.5441 18.2898C65.3644 18.1524 65.1753 18.0246 64.9885 17.8983C64.7272 17.7217 64.4705 17.5482 64.2505 17.3561C63.4959 16.8617 62.6874 16.2027 62.2562 15.4337C61.8788 14.9394 61.6093 14.1705 61.3937 13.2367C61.2859 12.5227 61.2859 11.8636 61.3398 11.0947C61.6093 9.83144 62.364 8.29356 62.8491 7.79924C63.1725 7.41477 64.0349 6.53598 64.2505 6.37121C64.5739 6.09659 65.059 5.76705 65.4363 5.54735C66.2449 5.10795 67.269 4.66856 68.1853 4.55871C68.9399 4.44886 69.9641 4.33902 70.8804 4.44886C71.4733 4.50379 71.7428 4.55871 72.4435 4.72348C72.476 4.73293 72.5088 4.74248 72.542 4.75213C73.2812 4.967 74.2008 5.23433 74.923 5.60227C75.5698 5.93182 76.0549 6.20644 76.6478 6.64583L74.7613 11.2595L74.0606 10.8201C73.8764 10.7075 73.6922 10.6205 73.5252 10.5417C73.4479 10.5052 73.3742 10.4704 73.306 10.4356C72.8208 10.2159 72.2818 10.1061 71.7967 10.3258C71.4733 10.4905 71.2038 10.8201 71.1499 11.2045C71.1131 12.0663 71.9793 12.6724 72.9784 13.3716C73.444 13.6975 73.9385 14.0435 74.384 14.4451C74.8744 14.8948 75.0525 15.1173 75.446 15.6088C75.485 15.6575 75.5261 15.7088 75.5698 15.7633C75.8393 16.1477 76.3783 17.1913 76.6478 18.3447C76.9174 19.3883 76.8634 20.4318 76.5939 21.5303C76.3783 22.2992 76.0549 23.0682 75.5698 23.7273C75.462 23.892 75.3407 24.0294 75.2195 24.1667C75.0982 24.304 74.9769 24.4413 74.8691 24.6061C74.2762 25.2652 73.6294 25.8144 72.9286 26.2538C72.174 26.7481 71.3116 27.1875 70.3953 27.4072C70.018 27.572 69.3712 27.6818 69.2633 27.6818C69.0369 27.6996 68.8443 27.723 68.6654 27.7449Z"/>
  </symbol>
  <symbol id="read_more" viewBox="0 0 41 37">
    <path d="M8.92041 20.0417H27.9893L19.6584 27.565C18.9926 28.1663 18.9926 29.1529 19.6584 29.7542C20.3242 30.3554 21.3997 30.3554 22.0655 29.7542L33.3157 19.5946C33.9815 18.9933 33.9815 18.0221 33.3157 17.4208L22.0826 7.24584C21.7636 6.95716 21.3306 6.79492 20.879 6.79492C20.4275 6.79492 19.9944 6.95716 19.6755 7.24584C19.0097 7.84709 19.0097 8.81834 19.6755 9.41959L27.9893 16.9583H8.92041C7.98148 16.9583 7.21326 17.6521 7.21326 18.5C7.21326 19.3479 7.98148 20.0417 8.92041 20.0417Z"/>
    <mask id="mask0" mask-type="alpha" maskUnits="userSpaceOnUse" x="7" y="6" width="27" height="25">
      <path d="M8.92041 20.0417H27.9893L19.6584 27.565C18.9926 28.1663 18.9926 29.1529 19.6584 29.7542C20.3242 30.3554 21.3997 30.3554 22.0655 29.7542L33.3157 19.5946C33.9815 18.9933 33.9815 18.0221 33.3157 17.4208L22.0826 7.24584C21.7636 6.95716 21.3306 6.79492 20.879 6.79492C20.4275 6.79492 19.9944 6.95716 19.6755 7.24584C19.0097 7.84709 19.0097 8.81834 19.6755 9.41959L27.9893 16.9583H8.92041C7.98148 16.9583 7.21326 17.6521 7.21326 18.5C7.21326 19.3479 7.98148 20.0417 8.92041 20.0417Z" fill="white"/>
    </mask>
    <g mask="url(#mask0)">
    </g>
  </symbol>
  <symbol id="facebook" viewBox="0 0 10 16">
    <path d="M8.40001 0C8.95229 0 9.40001 0.447715 9.40001 1V2.2C9.40001 2.75228 8.95229 3.2 8.40001 3.2H7.00001C6.44801 3.2 6.20001 3.848 6.20001 4.4V6.4H7.60001C8.15229 6.4 8.60001 6.84772 8.60001 7.4V8.6C8.60001 9.15228 8.15229 9.6 7.60001 9.6H6.20001V15C6.20001 15.5523 5.75229 16 5.20001 16H4.00001C3.44772 16 3.00001 15.5523 3.00001 15V9.6H1.60001C1.04772 9.6 0.600006 9.15229 0.600006 8.6V7.4C0.600006 6.84772 1.04772 6.4 1.60001 6.4H3.00001V3.2C3.00001 1.43269 4.43269 0 6.20001 0H8.40001Z"/>
    <mask id="mask0" mask-type="alpha" maskUnits="userSpaceOnUse" x="0" y="0" width="10" height="16">
    <path d="M8.40001 0C8.95229 0 9.40001 0.447715 9.40001 1V2.2C9.40001 2.75228 8.95229 3.2 8.40001 3.2H7.00001C6.44801 3.2 6.20001 3.848 6.20001 4.4V6.4H7.60001C8.15229 6.4 8.60001 6.84772 8.60001 7.4V8.6C8.60001 9.15228 8.15229 9.6 7.60001 9.6H6.20001V15C6.20001 15.5523 5.75229 16 5.20001 16H4.00001C3.44772 16 3.00001 15.5523 3.00001 15V9.6H1.60001C1.04772 9.6 0.600006 9.15229 0.600006 8.6V7.4C0.600006 6.84772 1.04772 6.4 1.60001 6.4H3.00001V3.2C3.00001 1.43269 4.43269 0 6.20001 0H8.40001Z"/>
    </mask>
    <g mask="url(#mask0)">
    </g>
  </symbol>
  <symbol id="twitter" viewBox="0 0 16 14">
    <path fill-rule="evenodd" clip-rule="evenodd" d="M9.211 0.278859C10.5075 0.0239481 11.6718 0.20887 12.6524 0.682129C12.7059 0.707935 12.7575 0.733953 12.8074 0.760075L13.7683 0.371208C14.7579 -0.0292811 15.8038 0.808394 15.6299 1.86104C16.1011 2.37874 16.1759 3.24373 15.539 3.81341L14.5535 4.69497C14.5656 5.77895 14.4169 6.75083 13.9604 7.83417C13.1466 9.76518 11.9797 11.2175 10.552 12.2276C9.54287 12.9416 8.46317 13.395 7.37506 13.639C6.67176 13.7966 6.07512 13.8458 5.63612 13.8349C4.29601 13.85 3.06162 13.5666 1.96028 13.0845C1.30499 12.7976 0.82359 12.5013 0.534289 12.2778C-0.511581 11.4699 0.0838453 9.79559 1.40501 9.82944C1.65863 9.83594 1.89619 9.83222 2.11837 9.81933C1.69768 9.32056 1.47438 8.819 1.38369 8.40628C1.35219 8.26295 1.34433 8.12089 1.3572 7.98373C1.26989 7.8784 1.18851 7.76911 1.11307 7.65605C0.578511 6.85488 0.420788 6.03127 0.465062 5.32801C0.468254 5.28465 0.469453 5.26837 0.471024 5.25213L0.474776 5.21701C0.498818 5.01275 0.56444 4.82838 0.660803 4.66869C0.377714 3.76687 0.441976 2.86003 0.708677 2.00622C0.79542 1.72852 0.886741 1.51133 0.960851 1.36558C1.40241 0.497119 2.58481 0.356171 3.21815 1.09649C4.21534 2.26214 5.20031 2.95521 6.13971 3.29104C6.25625 3.3327 6.36821 3.3677 6.47532 3.39672C6.77435 1.50922 8.01677 0.380316 9.211 0.278859ZM7.80984 4.99741C7.80984 4.99741 5.33755 5.57075 2.57881 2.34598C2.57881 2.34598 1.50395 4.45998 3.3672 5.74968C3.3672 5.74968 2.75837 5.85721 2.25622 5.49913C2.25622 5.49913 2.04117 7.32626 4.2627 8.04282H3.08032C3.08032 8.04282 3.40312 9.51188 5.48099 9.83425C5.48099 9.83425 4.6212 10.9807 1.82632 10.9091C1.82632 10.9091 3.40312 12.1272 5.80379 12.0913C5.80379 12.0913 10.2462 12.3063 12.3602 7.29013C12.88 6.05654 12.826 4.88988 12.7901 4.31633L14.1516 3.09846L12.7901 3.34922C12.7901 3.34922 13.7217 2.66856 13.8295 2.02361L12.3245 2.63265C12.3245 2.63265 11.1959 1.61156 9.27889 2.02361C9.27868 2.02361 7.52338 2.38189 7.80984 4.99741Z"/>
    <mask id="mask0" mask-type="alpha" maskUnits="userSpaceOnUse" x="0" y="0" width="16" height="14">
    <path fill-rule="evenodd" clip-rule="evenodd" d="M9.211 0.278859C10.5075 0.0239481 11.6718 0.20887 12.6524 0.682129C12.7059 0.707935 12.7575 0.733953 12.8074 0.760075L13.7683 0.371208C14.7579 -0.0292811 15.8038 0.808394 15.6299 1.86104C16.1011 2.37874 16.1759 3.24373 15.539 3.81341L14.5535 4.69497C14.5656 5.77895 14.4169 6.75083 13.9604 7.83417C13.1466 9.76518 11.9797 11.2175 10.552 12.2276C9.54287 12.9416 8.46317 13.395 7.37506 13.639C6.67176 13.7966 6.07512 13.8458 5.63612 13.8349C4.29601 13.85 3.06162 13.5666 1.96028 13.0845C1.30499 12.7976 0.82359 12.5013 0.534289 12.2778C-0.511581 11.4699 0.0838453 9.79559 1.40501 9.82944C1.65863 9.83594 1.89619 9.83222 2.11837 9.81933C1.69768 9.32056 1.47438 8.819 1.38369 8.40628C1.35219 8.26295 1.34433 8.12089 1.3572 7.98373C1.26989 7.8784 1.18851 7.76911 1.11307 7.65605C0.578511 6.85488 0.420788 6.03127 0.465062 5.32801C0.468254 5.28465 0.469453 5.26837 0.471024 5.25213L0.474776 5.21701C0.498818 5.01275 0.56444 4.82838 0.660803 4.66869C0.377714 3.76687 0.441976 2.86003 0.708677 2.00622C0.79542 1.72852 0.886741 1.51133 0.960851 1.36558C1.40241 0.497119 2.58481 0.356171 3.21815 1.09649C4.21534 2.26214 5.20031 2.95521 6.13971 3.29104C6.25625 3.3327 6.36821 3.3677 6.47532 3.39672C6.77435 1.50922 8.01677 0.380316 9.211 0.278859ZM7.80984 4.99741C7.80984 4.99741 5.33755 5.57075 2.57881 2.34598C2.57881 2.34598 1.50395 4.45998 3.3672 5.74968C3.3672 5.74968 2.75837 5.85721 2.25622 5.49913C2.25622 5.49913 2.04117 7.32626 4.2627 8.04282H3.08032C3.08032 8.04282 3.40312 9.51188 5.48099 9.83425C5.48099 9.83425 4.6212 10.9807 1.82632 10.9091C1.82632 10.9091 3.40312 12.1272 5.80379 12.0913C5.80379 12.0913 10.2462 12.3063 12.3602 7.29013C12.88 6.05654 12.826 4.88988 12.7901 4.31633L14.1516 3.09846L12.7901 3.34922C12.7901 3.34922 13.7217 2.66856 13.8295 2.02361L12.3245 2.63265C12.3245 2.63265 11.1959 1.61156 9.27889 2.02361C9.27868 2.02361 7.52338 2.38189 7.80984 4.99741Z"/>
    </mask>
    <g mask="url(#mask0)">
    </g>
  </symbol>
  <symbol id="linkedin" viewBox="0 0 19 22">
    <g filter="">
      <path fill-rule="evenodd" clip-rule="evenodd" d="M4.33334 4.53433C4.33334 3.87141 4.87126 3.3335 5.53418 3.3335C6.19668 3.3335 6.73459 3.87141 6.73501 4.53433C6.73501 5.19725 6.19709 5.74641 5.53418 5.74641C4.87126 5.74641 4.33334 5.19725 4.33334 4.53433ZM14.3308 13.3335V13.3331H14.3333V9.66557C14.3333 7.87141 13.9471 6.48932 11.8496 6.48932C10.8412 6.48932 10.1646 7.04266 9.88833 7.56724H9.85916V6.65682H7.87041V13.3331H9.94125V10.0272C9.94125 9.15682 10.1062 8.31516 11.1842 8.31516C12.2462 8.31516 12.2621 9.30849 12.2621 10.0831V13.3335H14.3308ZM4.49832 6.65726H6.57166V13.3335H4.49832V6.65726Z"/>
    </g>
    <defs>
      <filter id="filter0_d" x="0.333344" y="3.3335" filterUnits="userSpaceOnUse" color-interpolation-filters="sRGB">
        <feFlood flood-opacity="0" result="BackgroundImageFix"/>
        <feColorMatrix in="SourceAlpha" type="matrix" values="0 0 0 0 0 0 0 0 0 0 0 0 0 0 0 0 0 0 127 0"/>
        <feOffset dy="4"/>
        <feGaussianBlur stdDeviation="2"/>
        <feColorMatrix type="matrix" values="0 0 0 0 0 0 0 0 0 0 0 0 0 0 0 0 0 0 0.25 0"/>
        <feBlend mode="normal" in2="BackgroundImageFix" result="effect1_dropShadow"/>
        <feBlend mode="normal" in="SourceGraphic" in2="effect1_dropShadow" result="shape"/>
      </filter>
    </defs>
  </symbol>
  <symbol id="youtube" viewBox="0 0 16 16">
    <path fill-rule="evenodd" clip-rule="evenodd" d="M14.3779 4.91037C14.4678 5.23536 14.5283 5.64891 14.5674 6.17127C14.6098 6.65625 14.6303 7.09414 14.6288 7.44758L14.6667 7.99985C14.6667 9.34363 14.5698 10.3835 14.3779 11.0893C14.1695 11.8396 13.6579 12.3512 12.907 12.5597C12.566 12.6541 12.0142 12.7122 11.172 12.7505C10.4002 12.792 9.66758 12.812 8.9865 12.8115L8.00001 12.8483C5.45509 12.8483 3.80595 12.7536 3.09235 12.5596C2.34208 12.3512 1.83053 11.8396 1.62194 11.0887C1.53223 10.7643 1.47175 10.3508 1.43262 9.82844C1.39018 9.34345 1.36971 8.90556 1.37125 8.55212L1.33334 7.99985C1.33334 6.65607 1.43022 5.61625 1.62212 4.91037C1.83053 4.1601 2.34208 3.64855 3.09299 3.43997C3.43402 3.34564 3.98577 3.28748 4.82803 3.24921C5.59982 3.20766 6.33244 3.18773 7.01352 3.18816L8.00001 3.15137C10.5449 3.15137 12.1941 3.24615 12.9077 3.44014C13.6579 3.64855 14.1695 4.1601 14.3779 4.91037ZM12.5865 4.60894C12.0201 4.45497 10.4284 4.3635 8.02285 4.36307L7.03636 4.39986C6.35428 4.39986 5.64339 4.4192 4.88812 4.45984C4.12882 4.49436 3.64245 4.54563 3.41675 4.60805C3.07611 4.70268 2.88463 4.89416 2.79089 5.23157C2.63329 5.81132 2.54545 6.75415 2.54391 7.95668L2.58181 8.50895C2.58181 8.86897 2.60065 9.27179 2.64072 9.73029C2.67507 10.1883 2.72507 10.5301 2.79001 10.7649C2.88463 11.1056 3.07611 11.297 3.41352 11.3908C3.9799 11.5447 5.57158 11.6362 7.97714 11.6367L8.96363 11.5999C9.64571 11.5999 10.3566 11.5805 11.1119 11.5399C11.8712 11.5054 12.3575 11.4541 12.5832 11.3917C12.9239 11.297 13.1154 11.1056 13.2091 10.7681C13.3667 10.1884 13.4545 9.24558 13.4561 8.04304L13.4182 7.49077C13.4182 7.13075 13.3993 6.72793 13.3593 6.26943C13.3249 5.81164 13.275 5.46989 13.2099 5.23448C13.1152 4.89404 12.9238 4.70265 12.5865 4.60894ZM6.77806 9.41373V6.61128C6.77806 6.39758 7.01341 6.26773 7.19465 6.38405L9.39658 7.78258C9.56429 7.89078 9.56429 8.13424 9.39658 8.23973L7.19465 9.64096C7.01341 9.75728 6.77806 9.62744 6.77806 9.41373Z"/>
    <mask id="mask0" mask-type="alpha" maskUnits="userSpaceOnUse" x="1" y="3" width="14" height="10">
    <path fill-rule="evenodd" clip-rule="evenodd" d="M14.3779 4.91037C14.4678 5.23536 14.5283 5.64891 14.5674 6.17127C14.6098 6.65625 14.6303 7.09414 14.6288 7.44758L14.6667 7.99985C14.6667 9.34363 14.5698 10.3835 14.3779 11.0893C14.1695 11.8396 13.6579 12.3512 12.907 12.5597C12.566 12.6541 12.0142 12.7122 11.172 12.7505C10.4002 12.792 9.66758 12.812 8.9865 12.8115L8.00001 12.8483C5.45509 12.8483 3.80595 12.7536 3.09235 12.5596C2.34208 12.3512 1.83053 11.8396 1.62194 11.0887C1.53223 10.7643 1.47175 10.3508 1.43262 9.82844C1.39018 9.34345 1.36971 8.90556 1.37125 8.55212L1.33334 7.99985C1.33334 6.65607 1.43022 5.61625 1.62212 4.91037C1.83053 4.1601 2.34208 3.64855 3.09299 3.43997C3.43402 3.34564 3.98577 3.28748 4.82803 3.24921C5.59982 3.20766 6.33244 3.18773 7.01352 3.18816L8.00001 3.15137C10.5449 3.15137 12.1941 3.24615 12.9077 3.44014C13.6579 3.64855 14.1695 4.1601 14.3779 4.91037ZM12.5865 4.60894C12.0201 4.45497 10.4284 4.3635 8.02285 4.36307L7.03636 4.39986C6.35428 4.39986 5.64339 4.4192 4.88812 4.45984C4.12882 4.49436 3.64245 4.54563 3.41675 4.60805C3.07611 4.70268 2.88463 4.89416 2.79089 5.23157C2.63329 5.81132 2.54545 6.75415 2.54391 7.95668L2.58181 8.50895C2.58181 8.86897 2.60065 9.27179 2.64072 9.73029C2.67507 10.1883 2.72507 10.5301 2.79001 10.7649C2.88463 11.1056 3.07611 11.297 3.41352 11.3908C3.9799 11.5447 5.57158 11.6362 7.97714 11.6367L8.96363 11.5999C9.64571 11.5999 10.3566 11.5805 11.1119 11.5399C11.8712 11.5054 12.3575 11.4541 12.5832 11.3917C12.9239 11.297 13.1154 11.1056 13.2091 10.7681C13.3667 10.1884 13.4545 9.24558 13.4561 8.04304L13.4182 7.49077C13.4182 7.13075 13.3993 6.72793 13.3593 6.26943C13.3249 5.81164 13.275 5.46989 13.2099 5.23448C13.1152 4.89404 12.9238 4.70265 12.5865 4.60894ZM6.77806 9.41373V6.61128C6.77806 6.39758 7.01341 6.26773 7.19465 6.38405L9.39658 7.78258C9.56429 7.89078 9.56429 8.13424 9.39658 8.23973L7.19465 9.64096C7.01341 9.75728 6.77806 9.62744 6.77806 9.41373Z"/>
    </mask>
    <g mask="url(#mask0)">
    </g>
  </symbol>
  <symbol  viewBox="0 0 24 24" id="work_1">
    <path fill-rule="evenodd" clip-rule="evenodd" d="M22 8.5C22 7.39 21.11 6.5 20 6.5H16V4.5C16 3.39 15.11 2.5 14 2.5H10C8.89 2.5 8 3.39 8 4.5V6.5H4C2.89 6.5 2.01 7.39 2.01 8.5L2 19.5C2 20.61 2.89 21.5 4 21.5H20C21.11 21.5 22 20.61 22 19.5V8.5ZM14 6.5V4.5H10V6.5H14ZM4 9.5V18.5C4 19.05 4.45 19.5 5 19.5H19C19.55 19.5 20 19.05 20 18.5V9.5C20 8.95 19.55 8.5 19 8.5H5C4.45 8.5 4 8.95 4 9.5Z"/>
    <mask id="mask0" mask-type="alpha" maskUnits="userSpaceOnUse" x="2" y="2" width="20" height="20">
    <path fill-rule="evenodd" clip-rule="evenodd" d="M22 8.5C22 7.39 21.11 6.5 20 6.5H16V4.5C16 3.39 15.11 2.5 14 2.5H10C8.89 2.5 8 3.39 8 4.5V6.5H4C2.89 6.5 2.01 7.39 2.01 8.5L2 19.5C2 20.61 2.89 21.5 4 21.5H20C21.11 21.5 22 20.61 22 19.5V8.5ZM14 6.5V4.5H10V6.5H14ZM4 9.5V18.5C4 19.05 4.45 19.5 5 19.5H19C19.55 19.5 20 19.05 20 18.5V9.5C20 8.95 19.55 8.5 19 8.5H5C4.45 8.5 4 8.95 4 9.5Z" fill="white"/>
    </mask>
    <g mask="url(#mask0)">
    </g>
  </symbol>
</svg>