<svg xmlns="http://www.w3.org/2000/svg" width="31" height="49" viewBox="0 0 31 49"><g><g><path fill="#3e84da" d="M13.842 22.095c-.674.33-1.325.768-2.04.944-2.226.548-4.503.548-6.778.372-.834-.064-1.4-.698-1.357-1.452.047-.814.722-1.366 1.591-1.353.908.015 1.817-.043 2.724-.017 2.57.075 4.625-.937 6.247-2.887 1.19-1.431 2.753-2.202 4.544-2.59 2.03-.44 4.062-.877 6.082-1.36 1.048-.252 1.722-.975 2.133-1.957.432-1.031.553-2.11.535-3.215-.015-.936.565-1.57 1.41-1.569.801.003 1.429.639 1.401 1.533-.028.922-.077 1.854-.246 2.757-.447 2.38-1.639 4.202-3.943 5.255-1.18.54-2.244 1.328-3.378 1.974-.386.22-.484.494-.48.917.048 6.386.078 12.772.117 19.158.017 2.91.049 5.82.066 8.729.005.852-.414 1.437-1.097 1.573-.92.186-1.658-.387-1.72-1.394-.308-4.94-.598-9.88-.898-14.819-.016-.25-.067-.5-.102-.749l-.229.008c-.034.169-.088.335-.099.505-.241 3.713-.478 7.427-.715 11.14-.082 1.281-.15 2.564-.243 3.845-.063.856-.629 1.378-1.434 1.367-.782-.01-1.344-.588-1.382-1.426-.009-.189-.006-.378-.005-.567l.094-23.127c.002-.638 0-1.277 0-2.058-.346.203-.564.35-.798.463zm-.78-11.909a3.896 3.896 0 0 1 3.932-3.909 3.918 3.918 0 0 1 3.92 3.932c-.002 2.175-1.75 3.902-3.942 3.897-2.197-.005-3.914-1.727-3.91-3.92z"/></g><g><g><text dominant-baseline="text-before-edge" style="line-height:142px" fill="#25282d" font-family="'Roboto','Roboto-Bold'" font-size="12" font-style="none" font-weight="700"><tspan style="font-kerning:normal" letter-spacing=".6">H</tspan><tspan style="font-kerning:normal" letter-spacing=".6">i!</tspan></text></g></g></g></svg>