<svg xmlns="http://www.w3.org/2000/svg" width="26" height="33" viewBox="0 0 26 33"><g><g><path fill="#3e84da" d="M25 32.213h-9.333a.666.666 0 0 1-.667-.667V.881c0-.367.298-.666.667-.666H25c.369 0 .667.299.667.666v30.665a.666.666 0 0 1-.667.667zm-8.667-1.333h8V1.548h-8v4H19V6.88h-2.667v2.667H19v1.333h-2.667v2.666H19v1.334h-2.667v2.666H19v1.333h-2.667v2.667H19v1.333h-2.667v2.667H19v1.333h-2.667zm-10 0H3.667a3.337 3.337 0 0 1-3.334-3.334V8.215c0-.132.04-.261.112-.37l4-6c.248-.371.862-.371 1.11 0l4 6a.67.67 0 0 1 .112.37v19.331a3.337 3.337 0 0 1-3.334 3.334zM1.667 8.417v.464c0 .735.598 1.334 1.333 1.334s1.333-.599 1.333-1.334a.666.666 0 1 1 1.334 0c0 .735.598 1.334 1.333 1.334s1.333-.599 1.333-1.334v-.464L6.865 6.215h-3.73zm2.666 2.773v11.69h1.334V11.19A2.685 2.685 0 0 1 5 10.643c-.19.216-.416.402-.667.547zM7 22.88h1.333V11.19A2.65 2.65 0 0 1 7 11.548zm-5.333 0H3V11.548c-.485 0-.94-.13-1.333-.358zM5 3.417L4.024 4.88h1.952zm-3.333 22.13h6.666v-1.334H1.667zm0 2c0 1.102.897 2 2 2h2.666c1.103 0 2-.898 2-2v-.667H1.667z"/></g></g></svg>