<svg xmlns="http://www.w3.org/2000/svg" width="27" height="33" viewBox="0 0 27 33"><defs><clipPath id="874ua"><path fill="#fff" d="M7 14V0h14v14zm4-7.185a2.666 2.666 0 1 0 5.333 0 2.666 2.666 0 0 0-5.333 0z"/></clipPath></defs><g><g><path fill="#3e84da" d="M.637 10.058a1.113 1.113 0 0 0 1.196 1.02l1.576-.125c-4.496 5.42-4.028 13.492 1.203 18.325 5.405 4.995 13.864 4.659 18.857-.751 4.992-5.409 4.655-13.873-.75-18.868a13.375 13.375 0 0 0-8.23-3.517 1.112 1.112 0 1 0-.137 2.22 11.14 11.14 0 0 1 6.857 2.931c4.506 4.163 4.785 11.216.625 15.724-4.16 4.508-11.208 4.79-15.714.625-4.309-3.981-4.741-10.604-1.13-15.117v1.47a1.112 1.112 0 1 0 2.224 0V9.621a1.113 1.113 0 0 0-1.2-1.108l-4.356.347c-.613.05-1.07.586-1.021 1.198z"/></g><g><path fill="#25282d" d="M13.667 4.149a2.667 2.667 0 1 1 0 5.333 2.667 2.667 0 0 1 0-5.333z"/><path fill="none" stroke="#fff" stroke-linecap="round" stroke-linejoin="round" stroke-miterlimit="20" stroke-width="8" d="M13.667 4.149a2.667 2.667 0 1 1 0 5.333 2.667 2.667 0 0 1 0-5.333z" clip-path="url(&quot;#874ua&quot;)"/></g></g></svg>