<svg xmlns="http://www.w3.org/2000/svg" width="32" height="28" viewBox="0 0 32 28"><defs><clipPath id="u5w5a"><path d="M32 27.18H.013v-.53C.014 18.81.037 10.97 0 3.13-.009 1.417 1.349.513 2.605.517c2.817.008 5.634.001 8.451.001 6.183 0 12.366 0 18.548.002 1.493 0 2.394.904 2.394 2.409C32 10.88 32 18.832 32 26.784v.397zm-1.333-1.332V7.182H1.333v18.666h29.334zm-22-20.665c.671.004 1.329-.663 1.333-1.334.004-.676-.658-1.325-1.333-1.333-.671-.008-1.333.663-1.334 1.333 0 .68.663 1.329 1.334 1.334zm6-1.334c-.005-.673-.659-1.338-1.334-1.333-.675.005-1.337.653-1.333 1.333.004.673.66 1.338 1.333 1.334.666-.005 1.339-.663 1.334-1.334zm-9.334 0C5.326 3.171 4.674 2.513 4 2.516c-.672.003-1.337.657-1.333 1.333.003.674.655 1.333 1.333 1.334.667 0 1.34-.663 1.333-1.334zm9.334 19.999H4V9.182h10.667v14.666zM16 15.182v-6h12v6H16zm5.333 1.333v7.333H16v-7.333h5.333zm1.334 0H28v7.333h-5.333v-7.333z"/></clipPath></defs><g><g><path fill="#3e84da" d="M32 27.18H.013v-.53C.014 18.81.037 10.97 0 3.13-.009 1.417 1.349.513 2.605.517c2.817.008 5.634.001 8.451.001 6.183 0 12.366 0 18.548.002 1.493 0 2.394.904 2.394 2.409C32 10.88 32 18.832 32 26.784v.397zm-1.333-1.332V7.182H1.333v18.666h29.334zm-22-20.665c.671.004 1.329-.663 1.333-1.334.004-.676-.658-1.325-1.333-1.333-.671-.008-1.333.663-1.334 1.333 0 .68.663 1.329 1.334 1.334zm6-1.334c-.005-.673-.659-1.338-1.334-1.333-.675.005-1.337.653-1.333 1.333.004.673.66 1.338 1.333 1.334.666-.005 1.339-.663 1.334-1.334zm-9.334 0C5.326 3.171 4.674 2.513 4 2.516c-.672.003-1.337.657-1.333 1.333.003.674.655 1.333 1.333 1.334.667 0 1.34-.663 1.333-1.334zm9.334 19.999H4V9.182h10.667v14.666zM16 15.182v-6h12v6H16zm5.333 1.333v7.333H16v-7.333h5.333zm1.334 0H28v7.333h-5.333v-7.333z"/></g><g clip-path="url(#u5w5a)"><path fill="#25282d" d="M28-3.484v-2h8.667v29.332H38v4.666H-3.333v-.666H-4V-6.817h8v3.333zm0 27.332v-16H4v16z"/></g></g></svg>