<svg xmlns="http://www.w3.org/2000/svg" width="28" height="28" viewBox="0 0 28 28"><defs><clipPath id="vjlla"><path fill="#fff" d="M14 .676c7.364 0 13.333 5.97 13.333 13.334 0 7.365-5.97 13.334-13.333 13.334-7.364 0-13.333-5.97-13.333-13.334S6.637.676 14 .676z"/></clipPath></defs><g><g><path fill="#fff" d="M14 .676c7.364 0 13.333 5.97 13.333 13.334 0 7.365-5.97 13.334-13.333 13.334-7.364 0-13.333-5.97-13.333-13.334S6.637.676 14 .676z"/><path fill="none" stroke="#e7dfca" stroke-linecap="round" stroke-linejoin="round" stroke-miterlimit="20" stroke-width="2" d="M14 .676c7.364 0 13.333 5.97 13.333 13.334 0 7.365-5.97 13.334-13.333 13.334-7.364 0-13.333-5.97-13.333-13.334S6.637.676 14 .676z" clip-path="url(&quot;#vjlla&quot;)"/></g><g><path fill="#e7dfca" d="M19.186 8.242l-.74 1.11a5.988 5.988 0 0 1 2.22 4.658 5.988 5.988 0 0 1-2.22 4.66l.74 1.108A7.312 7.312 0 0 0 22 14.01a7.312 7.312 0 0 0-2.814-5.768zM17.7 10.468l-.748 1.12a3.318 3.318 0 0 1 1.053 2.423c0 .957-.408 1.815-1.053 2.424l.748 1.12a4.66 4.66 0 0 0 0-7.087zM14 6.676c-.785 0-1.022.456-1.022.456s-2.04 2.242-3.446 3.232a1.757 1.757 0 0 1-1.045.313H7.333c-.736 0-1.333.597-1.333 1.333v4c0 .736.597 1.334 1.333 1.334h1.154c.502 0 .786.148 1.044.312 1.406.99 3.446 3.233 3.446 3.233s.238.455 1.023.455c.736 0 1.333-.597 1.333-1.333V8.009c0-.736-.597-1.333-1.333-1.333z"/></g></g></svg>