<svg width="44" height="44" viewBox="0 0 44 44" fill="none" xmlns="http://www.w3.org/2000/svg">
<rect width="44" height="44" rx="22" fill="white"/>
<path d="M19.3109 16.2894C18.8964 16.6736 18.8964 17.2942 19.3109 17.6784L23.4355 21.5006L19.3109 25.3228C18.8964 25.707 18.8964 26.3277 19.3109 26.7119C19.7255 27.096 20.3952 27.096 20.8098 26.7119L25.6891 22.1902C26.1036 21.806 26.1036 21.1854 25.6891 20.8012L20.8098 16.2795C20.4058 15.9052 19.7255 15.9052 19.3109 16.2894Z" fill="black"/>
<mask id="mask0" mask-type="alpha" maskUnits="userSpaceOnUse" x="19" y="16" width="7" height="11">
<path d="M19.3109 16.2894C18.8964 16.6736 18.8964 17.2942 19.3109 17.6784L23.4355 21.5006L19.3109 25.3228C18.8964 25.707 18.8964 26.3277 19.3109 26.7119C19.7255 27.096 20.3952 27.096 20.8098 26.7119L25.6891 22.1902C26.1036 21.806 26.1036 21.1854 25.6891 20.8012L20.8098 16.2795C20.4058 15.9052 19.7255 15.9052 19.3109 16.2894Z" fill="white"/>
</mask>
<g mask="url(#mask0)">
</g>
</svg>
