<svg width="32" height="32" viewBox="0 0 32 32" fill="none" xmlns="http://www.w3.org/2000/svg">
<circle cx="16" cy="16" r="16" fill="#3A444C"/>
<path d="M13.2925 10.2938C12.9025 10.6838 12.9025 11.3138 13.2925 11.7038L17.1725 15.5838L13.2925 19.4638C12.9025 19.8538 12.9025 20.4838 13.2925 20.8738C13.6825 21.2638 14.3125 21.2638 14.7025 20.8738L19.2925 16.2838C19.6825 15.8938 19.6825 15.2638 19.2925 14.8738L14.7025 10.2838C14.3225 9.90376 13.6825 9.90376 13.2925 10.2938Z" fill="white"/>
<mask id="mask0" mask-type="alpha" maskUnits="userSpaceOnUse" x="13" y="10" width="7" height="12">
<path d="M13.2925 10.2938C12.9025 10.6838 12.9025 11.3138 13.2925 11.7038L17.1725 15.5838L13.2925 19.4638C12.9025 19.8538 12.9025 20.4838 13.2925 20.8738C13.6825 21.2638 14.3125 21.2638 14.7025 20.8738L19.2925 16.2838C19.6825 15.8938 19.6825 15.2638 19.2925 14.8738L14.7025 10.2838C14.3225 9.90376 13.6825 9.90376 13.2925 10.2938Z" fill="white"/>
</mask>
<g mask="url(#mask0)">
</g>
</svg>
