<svg width="22" height="22" viewBox="0 0 22 22" fill="none" xmlns="http://www.w3.org/2000/svg">
<path fill-rule="evenodd" clip-rule="evenodd" d="M10.5746 0.506615C10.3157 0.506499 10.0759 0.506391 9.85292 0.50674V0.50354C7.4673 0.506207 7.00969 0.522207 5.82888 0.575541C4.58087 0.632875 3.90326 0.840877 3.45205 1.01688C2.85471 1.24941 2.42804 1.52675 1.98004 1.97476C1.53203 2.42276 1.25416 2.84943 1.02216 3.44677C0.846961 3.89798 0.638425 4.57532 0.581358 5.82333C0.520024 7.17268 0.507757 7.57588 0.507757 10.994C0.507757 14.4122 0.520024 14.8176 0.581358 16.1669C0.638159 17.4149 0.846961 18.0923 1.02216 18.5429C1.2547 19.1405 1.53203 19.5661 1.98004 20.0141C2.42804 20.4621 2.85471 20.7395 3.45205 20.9715C3.90353 21.1467 4.58087 21.3552 5.82888 21.4128C7.17823 21.4742 7.5833 21.4875 11.0012 21.4875C14.4188 21.4875 14.8242 21.4742 16.1735 21.4128C17.4215 21.3558 18.0994 21.1478 18.5501 20.9718C19.1477 20.7398 19.573 20.4624 20.021 20.0144C20.469 19.5667 20.7469 19.1413 20.9789 18.544C21.1541 18.0933 21.3626 17.416 21.4197 16.168C21.481 14.8186 21.4944 14.4133 21.4944 10.9972C21.4944 7.58121 21.481 7.17588 21.4197 5.82653C21.3629 4.57852 21.1541 3.90118 20.9789 3.4505C20.7464 2.85316 20.469 2.42649 20.021 1.97849C19.5733 1.53048 19.1474 1.25315 18.5501 1.02115C18.0989 0.845944 17.4215 0.637408 16.1735 0.580341C14.8239 0.519007 14.4188 0.50674 11.0012 0.50674L10.5746 0.506615ZM15.2679 11.0002C15.2679 8.64363 13.3575 6.73347 11.0012 6.73347C8.64464 6.73347 6.73449 8.64363 6.73449 11.0002C6.73449 13.3565 8.64464 15.2669 11.0012 15.2669C13.3575 15.2669 15.2679 13.3565 15.2679 11.0002ZM17.8338 2.6321C16.9858 2.6321 16.2978 3.3193 16.2978 4.16758C16.2978 5.01559 16.9858 5.70359 17.8338 5.70359C18.6818 5.70359 19.3698 5.01559 19.3698 4.16758C19.3698 3.31957 18.6818 2.63156 17.8338 2.63156V2.6321ZM4.4278 11.0002C4.4278 7.3701 7.37088 4.42692 11.0009 4.42678C14.6311 4.42678 17.5735 7.37001 17.5735 11.0002C17.5735 14.6304 14.6314 17.5723 11.0012 17.5723C7.37103 17.5723 4.4278 14.6304 4.4278 11.0002Z" fill="black"/>
</svg>
