<svg width="38" height="38" viewBox="0 0 38 38" fill="none" xmlns="http://www.w3.org/2000/svg"><path fill-rule="evenodd" clip-rule="evenodd" d="M25.0708 28.7845C25.317 29.0308 25.651 29.1691 25.9993 29.1691C26.3475 29.1691 26.6815 29.0308 26.9277 28.7845L36.2125 19.4998C36.4587 19.2536 36.597 18.9196 36.597 18.5714C36.597 18.2231 36.4587 17.8891 36.2125 17.6429L26.9277 8.35816C26.6815 8.11192 26.3475 7.97358 25.9993 7.97358C25.651 7.97358 25.317 8.11192 25.0708 8.35816C24.8246 8.60441 24.6862 8.93839 24.6862 9.28664C24.6862 9.63488 24.8246 9.96886 25.0708 10.2151L33.427 18.5714L25.0708 26.9276C24.8246 27.1738 24.6862 27.5078 24.6862 27.8561C24.6862 28.2043 24.8245 28.5383 25.0708 28.7845Z" fill="#506A85"/><path fill-rule="evenodd" clip-rule="evenodd" d="M36.599 18.5723C36.5992 18.3996 36.5653 18.2285 36.4994 18.0689C36.4334 17.9093 36.3365 17.7643 36.2144 17.6421C36.0923 17.52 35.9473 17.4232 35.7876 17.3572C35.628 17.2912 35.457 17.2573 35.2843 17.2576L1.85929 17.2575C1.51061 17.2575 1.1762 17.3961 0.929646 17.6426C0.683089 17.8892 0.544574 18.2236 0.544573 18.5723C0.544573 18.9209 0.683088 19.2554 0.929645 19.5019C1.1762 19.7485 1.51061 19.887 1.85929 19.887L35.2843 19.887C35.457 19.8872 35.628 19.8533 35.7876 19.7874C35.9473 19.7214 36.0923 19.6245 36.2144 19.5024C36.3365 19.3803 36.4334 19.2353 36.4994 19.0756C36.5653 18.916 36.5992 18.745 36.599 18.5723Z" fill="#506A85"/></svg>
