<svg width="38" height="38" viewBox="0 0 38 38" fill="none" xmlns="http://www.w3.org/2000/svg"><path fill-rule="evenodd" clip-rule="evenodd" d="M12.0737 28.7845C11.8275 29.0308 11.4935 29.1691 11.1453 29.1691C10.797 29.1691 10.463 29.0308 10.2168 28.7845L0.932074 19.4998C0.685828 19.2536 0.547488 18.9196 0.547488 18.5714C0.547488 18.2231 0.685828 17.8891 0.932074 17.6429L10.2168 8.35816C10.463 8.11192 10.797 7.97358 11.1453 7.97358C11.4935 7.97358 11.8275 8.11192 12.0737 8.35816C12.32 8.60441 12.4583 8.93839 12.4583 9.28664C12.4583 9.63488 12.32 9.96886 12.0737 10.2151L3.71749 18.5714L12.0737 26.9276C12.32 27.1738 12.4583 27.5078 12.4583 27.8561C12.4583 28.2043 12.32 28.5383 12.0737 28.7845Z" fill="#506A85"/><path fill-rule="evenodd" clip-rule="evenodd" d="M0.545545 18.5723C0.545326 18.3996 0.579183 18.2285 0.645177 18.0689C0.711171 17.9093 0.808004 17.7643 0.93013 17.6421C1.05226 17.52 1.19728 17.4232 1.35688 17.3572C1.51649 17.2912 1.68755 17.2573 1.86026 17.2576L35.2852 17.2575C35.6339 17.2575 35.9683 17.3961 36.2149 17.6426C36.4614 17.8892 36.6 18.2236 36.6 18.5723C36.6 18.9209 36.4614 19.2554 36.2149 19.5019C35.9683 19.7485 35.6339 19.887 35.2852 19.887L1.86026 19.887C1.68755 19.8872 1.51649 19.8533 1.35688 19.7874C1.19727 19.7214 1.05226 19.6245 0.930129 19.5024C0.808003 19.3803 0.711171 19.2353 0.645178 19.0756C0.579184 18.916 0.545326 18.745 0.545545 18.5723Z" fill="#506A85"/></svg>
