<svg width="22" height="21" viewBox="0 0 22 21" fill="none" xmlns="http://www.w3.org/2000/svg">
<path d="M11.25 0.00891177C10.55 -0.0410882 9.82 0.118912 9.17 0.498912C7.41 1.50891 6.81 3.74891 7.82 5.49891L15.16 18.1989C16.17 19.9589 18.41 20.5389 20.17 19.5389C21.92 18.5389 22.5 16.2889 21.5 14.5389L14.18 1.83891C13.54 0.738912 12.43 0.0989118 11.25 0.00891177ZM5.82 5.29891L0.5 14.5389C0.17583 15.0945 0.00340262 15.7256 0 16.3689C0 16.8509 0.0949273 17.3281 0.279362 17.7734C0.463797 18.2186 0.734127 18.6232 1.07492 18.964C1.41571 19.3048 1.82029 19.5751 2.26555 19.7596C2.71082 19.944 3.18805 20.0389 3.67 20.0389C4.3133 20.0369 4.94478 19.8659 5.50115 19.543C6.05752 19.22 6.51923 18.7565 6.84 18.1989V18.2089L10 12.7289C8.65 10.4289 7.27 8.13891 6.03 5.76891C5.95 5.61891 5.88 5.45891 5.83 5.29891H5.82ZM5.82 5.29891L15.4 3.53891L5.82 5.29891Z" fill="#506A85"/>
</svg>
