<svg width="45" height="45" viewBox="0 0 45 45" fill="none" xmlns="http://www.w3.org/2000/svg">
<circle cx="22.5" cy="22.5" r="22.5" fill="#00BC9C"/>
<path d="M30.9287 18.093C30.6538 17.4262 30.2575 16.8219 29.7618 16.3141C29.2658 15.8047 28.681 15.3999 28.0392 15.1217C27.3736 14.8321 26.6598 14.6838 25.9392 14.6855C24.9281 14.6855 23.9417 14.9756 23.0845 15.5234C22.8794 15.6545 22.6846 15.7984 22.5 15.9553C22.3154 15.7984 22.1206 15.6545 21.9155 15.5234C21.0583 14.9756 20.0719 14.6855 19.0608 14.6855C18.3328 14.6855 17.6273 14.8316 16.9608 15.1217C16.3169 15.401 15.7365 15.8027 15.2382 16.3141C14.7419 16.8214 14.3454 17.4257 14.0713 18.093C13.7862 18.7869 13.6406 19.5238 13.6406 20.2822C13.6406 20.9977 13.7801 21.7432 14.0569 22.5016C14.2887 23.1354 14.6209 23.7928 15.0454 24.4566C15.7181 25.5072 16.643 26.6029 17.7914 27.7137C19.6945 29.5549 21.5792 30.8268 21.6592 30.8783L22.1452 31.2049C22.3605 31.3488 22.6374 31.3488 22.8527 31.2049L23.3388 30.8783C23.4188 30.8246 25.3014 29.5549 27.2065 27.7137C28.355 26.6029 29.2799 25.5072 29.9525 24.4566C30.3771 23.7928 30.7113 23.1354 30.941 22.5016C31.2179 21.7432 31.3573 20.9977 31.3573 20.2822C31.3594 19.5238 31.2138 18.7869 30.9287 18.093ZM22.5 29.5055C22.5 29.5055 15.1992 24.6049 15.1992 20.2822C15.1992 18.093 16.928 16.3184 19.0608 16.3184C20.56 16.3184 21.8602 17.1949 22.5 18.4754C23.1398 17.1949 24.44 16.3184 25.9392 16.3184C28.072 16.3184 29.8008 18.093 29.8008 20.2822C29.8008 24.6049 22.5 29.5055 22.5 29.5055Z" fill="white"/>
</svg>
