<svg width="45" height="45" viewBox="0 0 45 45" fill="none" xmlns="http://www.w3.org/2000/svg">
<circle cx="22.5" cy="22.5" r="22.5" fill="#00BC9C"/>
<path d="M26 22.9844C25.3438 23.6823 24.8464 24.3151 24.5078 24.8828C24.1693 25.4505 24 25.9896 24 26.5C24 26.6354 23.9505 26.7526 23.8516 26.8516C23.7526 26.9505 23.6354 27 23.5 27H20.5C20.3646 27 20.2474 26.9505 20.1484 26.8516C20.0495 26.7526 20 26.6354 20 26.5C20 25.9896 19.8307 25.4505 19.4922 24.8828C19.1536 24.3151 18.6562 23.6823 18 22.9844C17.3333 22.099 17 21.1042 17 20C17 19.0938 17.224 18.2578 17.6719 17.4922C18.1198 16.7266 18.7266 16.1198 19.4922 15.6719C20.2578 15.224 21.0938 15 22 15C22.9062 15 23.7422 15.224 24.5078 15.6719C25.2734 16.1198 25.8802 16.7266 26.3281 17.4922C26.776 18.2578 27 19.0938 27 20C27 21.1042 26.6667 22.099 26 22.9844ZM20.5 28H23.5C23.6354 28 23.7526 28.0495 23.8516 28.1484C23.9505 28.2474 24 28.3646 24 28.5C24 28.6354 23.9505 28.7526 23.8516 28.8516C23.7526 28.9505 23.6354 29 23.5 29H20.5C20.3646 29 20.2474 28.9505 20.1484 28.8516C20.0495 28.7526 20 28.6354 20 28.5C20 28.3646 20.0495 28.2474 20.1484 28.1484C20.2474 28.0495 20.3646 28 20.5 28ZM22 31C21.4479 31 20.9766 30.901 20.5859 30.7031C20.1953 30.5052 20 30.2708 20 30H24C24 30.2708 23.8047 30.5052 23.4141 30.7031C23.0234 30.901 22.5521 31 22 31Z" fill="white"/>
</svg>
