<svg width="45" height="45" viewBox="0 0 45 45" fill="none" xmlns="http://www.w3.org/2000/svg">
<circle cx="22.5" cy="22.5" r="22.5" fill="#00BC9C"/>
<path d="M30.5098 19.5861L25.055 18.7933L22.6165 13.8498C22.5499 13.7144 22.4403 13.6049 22.305 13.5383C21.9655 13.3707 21.553 13.5103 21.3833 13.8498L18.9448 18.7933L13.4899 19.5861C13.3395 19.6076 13.202 19.6785 13.0967 19.7859C12.9695 19.9167 12.8993 20.0927 12.9018 20.2752C12.9042 20.4577 12.9789 20.6318 13.1096 20.7592L17.0563 24.607L16.1239 30.0404C16.102 30.1668 16.116 30.2968 16.1643 30.4156C16.2125 30.5345 16.2931 30.6374 16.3969 30.7128C16.5007 30.7882 16.6235 30.833 16.7515 30.8421C16.8794 30.8512 17.0073 30.8243 17.1208 30.7644L21.9999 28.1992L26.879 30.7644C27.0122 30.8353 27.1669 30.859 27.3151 30.8332C27.6889 30.7687 27.9403 30.4142 27.8759 30.0404L26.9434 24.607L30.8901 20.7592C30.9975 20.6539 31.0684 20.5164 31.0899 20.366C31.1479 19.99 30.8858 19.642 30.5098 19.5861ZM25.2827 24.0656L26.0583 28.5838L21.9999 26.4525L17.9415 28.5859L18.7171 24.0678L15.4342 20.8666L19.9717 20.207L21.9999 16.0971L24.028 20.207L28.5655 20.8666L25.2827 24.0656Z" fill="white"/>
</svg>
