<svg width="22" height="17" viewBox="0 0 22 17" fill="none" xmlns="http://www.w3.org/2000/svg">
<path d="M21.9083 2C21.1383 2.35 20.3083 2.58 19.4483 2.69C20.3283 2.16 21.0083 1.32 21.3283 0.31C20.4983 0.81 19.5783 1.16 18.6083 1.36C17.8183 0.5 16.7083 0 15.4483 0C13.0983 0 11.1783 1.92 11.1783 4.29C11.1783 4.63 11.2183 4.96 11.2883 5.27C7.72828 5.09 4.55828 3.38 2.44828 0.79C2.07828 1.42 1.86828 2.16 1.86828 2.94C1.86828 4.43 2.61828 5.75 3.77828 6.5C3.06828 6.5 2.40828 6.3 1.82828 6C1.82828 6 1.82828 6 1.82828 6.03C1.82828 8.11 3.30828 9.85 5.26828 10.24C4.90828 10.34 4.52828 10.39 4.13828 10.39C3.86828 10.39 3.59828 10.36 3.33828 10.31C3.87828 12 5.44828 13.26 7.33828 13.29C5.87828 14.45 4.02828 15.13 2.00828 15.13C1.66828 15.13 1.32828 15.11 0.988281 15.07C2.88828 16.29 5.14828 17 7.56828 17C15.4483 17 19.7783 10.46 19.7783 4.79C19.7783 4.6 19.7783 4.42 19.7683 4.23C20.6083 3.63 21.3283 2.87 21.9083 2Z" fill="#506A85"/>
</svg>
