<svg width="30" height="30" viewBox="0 0 30 30" fill="none" xmlns="http://www.w3.org/2000/svg">
<circle cx="15" cy="15" r="15" fill="#8D76BE"/>
<path d="M16.8412 14.02C17.5772 14.14 18.1412 14.416 18.5332 14.848C18.9252 15.272 19.1212 15.8 19.1212 16.432C19.1212 16.92 18.9932 17.372 18.7372 17.788C18.4812 18.196 18.0892 18.524 17.5612 18.772C17.0412 19.02 16.4012 19.144 15.6412 19.144C15.0492 19.144 14.4652 19.068 13.8892 18.916C13.3212 18.756 12.8372 18.532 12.4372 18.244L13.1932 16.756C13.5132 16.996 13.8812 17.184 14.2972 17.32C14.7212 17.448 15.1532 17.512 15.5932 17.512C16.0812 17.512 16.4652 17.42 16.7452 17.236C17.0252 17.044 17.1652 16.776 17.1652 16.432C17.1652 15.744 16.6412 15.4 15.5932 15.4H14.7052V14.116L16.4332 12.16H12.8572V10.6H18.7372V11.86L16.8412 14.02Z" fill="white"/>
</svg>
