<svg width="33" height="33" viewBox="0 0 33 33" fill="none" xmlns="http://www.w3.org/2000/svg">
<path d="M31.7103 0.385254H2.25121C1.54275 0.385254 0.970383 0.957625 0.970383 1.66609V31.1252C0.970383 31.8337 1.54275 32.406 2.25121 32.406H31.7103C32.4188 32.406 32.9912 31.8337 32.9912 31.1252V1.66609C32.9912 0.957625 32.4188 0.385254 31.7103 0.385254ZM28.0119 9.73132H25.4543C23.449 9.73132 23.0607 10.6839 23.0607 12.0848V15.1708H27.8478L27.2234 20.002H23.0607V32.406H18.0695V20.006H13.8948V15.1708H18.0695V11.6085C18.0695 7.47385 20.5951 5.22039 24.2855 5.22039C26.0547 5.22039 27.5716 5.35248 28.0159 5.41252V9.73132H28.0119Z" fill="#2091F9"/>
</svg>
