<svg width="26" height="33" viewBox="0 0 26 33" fill="none" xmlns="http://www.w3.org/2000/svg">
<path d="M12.9998 19.884C16.4927 19.884 19.3332 17.0435 19.3332 13.5506C19.3332 10.0578 16.4927 7.21729 12.9998 7.21729C9.507 7.21729 6.6665 10.0578 6.6665 13.5506C6.6665 17.0435 9.507 19.884 12.9998 19.884ZM12.9998 10.384C14.7463 10.384 16.1665 11.8042 16.1665 13.5506C16.1665 15.297 14.7463 16.7173 12.9998 16.7173C11.2534 16.7173 9.83317 15.297 9.83317 13.5506C9.83317 11.8042 11.2534 10.384 12.9998 10.384Z" fill="#2091F9"/>
<path d="M11.7487 32.2561C12.0166 32.4474 12.3377 32.5503 12.667 32.5503C12.9963 32.5503 13.3173 32.4474 13.5853 32.2561C14.0667 31.9157 25.3796 23.7472 25.3337 13.5506C25.3337 6.56649 19.6511 0.883911 12.667 0.883911C5.68291 0.883911 0.000322499 6.56649 0.000322499 13.5427C-0.0455942 23.7472 11.2673 31.9157 11.7487 32.2561ZM12.667 4.05058C17.9062 4.05058 22.167 8.31133 22.167 13.5585C22.2002 20.5853 15.2193 26.8949 12.667 28.9643C10.1162 26.8933 3.13374 20.5822 3.16699 13.5506C3.16699 8.31133 7.42774 4.05058 12.667 4.05058Z" fill="#2091F9"/>
</svg>
