<svg width="33" height="33" viewBox="0 0 33 33" fill="none" xmlns="http://www.w3.org/2000/svg">
<path d="M31.6981 0.385254H2.23899C1.53053 0.385254 0.95816 0.957625 0.95816 1.66609V31.1252C0.95816 31.8337 1.53053 32.406 2.23899 32.406H31.6981C32.4066 32.406 32.9789 31.8337 32.9789 31.1252V1.66609C32.9789 0.957625 32.4066 0.385254 31.6981 0.385254ZM10.4563 27.671H5.70524V12.389H10.4563V27.671ZM8.08278 10.2997C7.53814 10.2997 7.00572 10.1382 6.55286 9.83559C6.1 9.533 5.74704 9.10292 5.53862 8.59973C5.33019 8.09654 5.27565 7.54285 5.38191 7.00866C5.48817 6.47448 5.75044 5.9838 6.13556 5.59868C6.52069 5.21355 7.01136 4.95128 7.54555 4.84503C8.07973 4.73877 8.63342 4.7933 9.13661 5.00173C9.6398 5.21016 10.0699 5.56312 10.3725 6.01598C10.6751 6.46884 10.8366 7.00125 10.8366 7.5459C10.8326 9.06689 9.59977 10.2997 8.08278 10.2997ZM28.2439 27.671H23.4968V20.2381C23.4968 18.465 23.4648 16.1875 21.0272 16.1875C18.5576 16.1875 18.1773 18.1168 18.1773 20.1101V27.671H13.4343V12.389H17.9892V14.4784H18.0533C18.6857 13.2776 20.2347 12.0088 22.5482 12.0088C27.3593 12.0088 28.2439 15.1748 28.2439 19.2895V27.671Z" fill="#2091F9"/>
</svg>
