<svg width="34" height="28" viewBox="0 0 34 28" fill="none" xmlns="http://www.w3.org/2000/svg">
<path d="M33.6449 4.08105C32.4201 4.60939 31.0873 4.98964 29.7144 5.13773C31.1398 4.29093 32.2072 2.95311 32.7163 1.37529C31.3788 2.17096 29.9135 2.7289 28.3855 3.02436C27.7469 2.34162 26.9745 1.79772 26.1165 1.42655C25.2584 1.05538 24.3332 0.864895 23.3983 0.86696C19.6158 0.86696 16.5739 3.93295 16.5739 7.69539C16.5739 8.22373 16.6379 8.75208 16.742 9.26041C11.0783 8.96421 6.02702 6.25846 2.66884 2.11577C2.05694 3.16091 1.73629 4.35092 1.74023 5.56201C1.74023 7.93154 2.94502 10.0209 4.78221 11.2497C3.69952 11.2071 2.64219 10.9095 1.69621 10.3811V10.4652C1.69621 13.7833 4.04173 16.5331 7.16776 17.1655C6.58081 17.318 5.97701 17.396 5.37059 17.3977C4.9263 17.3977 4.50603 17.3537 4.08175 17.2936C4.94631 19.9994 7.46395 21.9647 10.4619 22.0287C8.11637 23.8659 5.17846 24.9466 1.98839 24.9466C1.41602 24.9466 0.887681 24.9266 0.339325 24.8625C3.36529 26.8038 6.95562 27.9245 10.8221 27.9245C23.3743 27.9245 30.2427 17.5258 30.2427 8.49991C30.2427 8.20372 30.2427 7.90753 30.2227 7.61134C31.5516 6.63871 32.7163 5.43392 33.6449 4.08105Z" fill="#2091F9"/>
</svg>
