<svg width="32" height="39" viewBox="0 0 32 39" fill="none" xmlns="http://www.w3.org/2000/svg">
<path d="M16 23.1366C20.2282 23.1366 23.6667 19.6981 23.6667 15.4699C23.6667 11.2417 20.2282 7.80322 16 7.80322C11.7718 7.80322 8.33334 11.2417 8.33334 15.4699C8.33334 19.6981 11.7718 23.1366 16 23.1366ZM16 11.6366C18.1141 11.6366 19.8333 13.3558 19.8333 15.4699C19.8333 17.584 18.1141 19.3032 16 19.3032C13.8859 19.3032 12.1667 17.584 12.1667 15.4699C12.1667 13.3558 13.8859 11.6366 16 11.6366Z" fill="white"/>
<path d="M14.8884 38.1133C15.2128 38.345 15.6014 38.4695 16.0001 38.4695C16.3987 38.4695 16.7873 38.345 17.1117 38.1133C17.6944 37.7012 31.389 27.8131 31.3334 15.4698C31.3334 7.01539 24.4545 0.136475 16.0001 0.136475C7.54565 0.136475 0.666734 7.01539 0.666734 15.4602C0.61115 27.8131 14.3057 37.7012 14.8884 38.1133ZM16.0001 3.96981C22.3423 3.96981 27.5001 9.12756 27.5001 15.4794C27.5403 23.9856 19.0897 31.6235 16.0001 34.1286C12.9123 31.6216 4.45982 23.9817 4.50007 15.4698C4.50007 9.12756 9.65782 3.96981 16.0001 3.96981Z" fill="white"/>
</svg>
