<svg width="48" height="43" viewBox="0 0 48 43" fill="none" xmlns="http://www.w3.org/2000/svg">
<path fill-rule="evenodd" clip-rule="evenodd" d="M24 4.87667C26.5433 1.89 30.44 0 34.5 0C41.6867 0 47.3333 5.64667 47.3333 12.8333C47.3333 21.6461 39.413 28.8282 27.4129 39.7098L27.3833 39.7367L24 42.8167L20.6167 39.76L20.5245 39.6763C8.55946 28.8032 0.666656 21.6308 0.666656 12.8333C0.666656 5.64667 6.31332 0 13.5 0C17.56 0 21.4567 1.89 24 4.87667ZM24 36.5167L24.2333 36.2833C35.34 26.2267 42.6667 19.5767 42.6667 12.8333C42.6667 8.16667 39.1667 4.66667 34.5 4.66667C30.9067 4.66667 27.4067 6.97667 26.1933 10.1733H21.83C20.5933 6.97667 17.0933 4.66667 13.5 4.66667C8.83332 4.66667 5.33332 8.16667 5.33332 12.8333C5.33332 19.5767 12.66 26.2267 23.7667 36.2833L24 36.5167Z" fill="#FD5545"/>
</svg>
