<svg width="41" height="41" viewBox="0 0 41 41" fill="none" xmlns="http://www.w3.org/2000/svg">
<path fill-rule="evenodd" clip-rule="evenodd" d="M27.3233 25.6667H29.1667L40.81 37.3333L37.3333 40.81L25.6667 29.1667V27.3233L25.0367 26.67C22.3767 28.9567 18.9233 30.3333 15.1667 30.3333C6.79 30.3333 0 23.5433 0 15.1667C0 6.79 6.79 0 15.1667 0C23.5433 0 30.3333 6.79 30.3333 15.1667C30.3333 18.9233 28.9567 22.3767 26.67 25.0367L27.3233 25.6667ZM4.66667 15.1667C4.66667 20.9767 9.35667 25.6667 15.1667 25.6667C20.9767 25.6667 25.6667 20.9767 25.6667 15.1667C25.6667 9.35667 20.9767 4.66667 15.1667 4.66667C9.35667 4.66667 4.66667 9.35667 4.66667 15.1667Z" fill="#FD5545"/>
</svg>
