<svg width="44" height="36" viewBox="0 0 44 36" fill="none" xmlns="http://www.w3.org/2000/svg">
<path fill-rule="evenodd" clip-rule="evenodd" d="M28.25 3.69202C30.469 3.69202 32.988 4.56902 34.399 6.03102C36.154 5.69202 37.81 5.07202 39.297 4.21002C38.723 5.96302 37.497 7.43202 35.905 8.36102C37.463 8.17602 38.956 7.77702 40.339 7.17802C39.302 8.68102 37.996 10.004 36.487 11.064C36.501 11.385 36.508 11.708 36.508 12.031C36.508 21.948 29.018 33.307 14.818 33.307C10.46 33.307 6.124 32.14 2.711 30.009C3.314 30.083 3.928 30.117 4.55 30.117C8.167 30.117 11.496 28.918 14.141 26.902C10.759 26.844 7.908 24.672 6.929 21.693C7.399 21.78 7.884 21.828 8.383 21.828C9.083 21.828 9.768 21.739 10.413 21.565C6.882 20.878 4.222 17.844 4.222 14.208C4.222 14.174 4.222 14.142 4.222 14.111C5.263 14.674 6.452 15.013 7.719 15.052C5.646 13.703 4.285 11.411 4.285 8.80502C4.285 7.42902 4.665 6.13902 5.329 5.03502C9.135 9.57002 14.826 12.56 21.243 12.875C21.109 12.326 21.041 11.747 21.041 11.166C21.041 7.01902 23.984 3.69202 28.25 3.69202ZM40.339 7.17802H40.345H40.339ZM28.25 0.999023C23.055 0.999023 19.036 4.70602 18.433 9.81802C14.123 8.94802 10.202 6.65802 7.385 3.30202C6.872 2.69102 6.118 2.34302 5.329 2.34302C5.259 2.34302 5.188 2.34502 5.118 2.35102C4.253 2.41902 3.475 2.90102 3.027 3.64602C2.092 5.20102 1.598 6.98502 1.598 8.80502C1.598 10.018 1.817 11.201 2.228 12.306C1.788 12.794 1.535 13.435 1.535 14.111V14.208C1.535 16.846 2.575 19.292 4.303 21.127C4.204 21.587 4.226 22.073 4.377 22.535C4.974 24.352 6.059 25.917 7.464 27.109C6.52 27.318 5.545 27.425 4.55 27.425C4.024 27.425 3.514 27.395 3.035 27.338C2.926 27.324 2.817 27.317 2.709 27.317C1.583 27.317 0.558997 28.028 0.176997 29.114C-0.242003 30.305 0.220997 31.628 1.291 32.295C5.119 34.683 9.923 35.999 14.818 35.999C24.061 35.999 29.801 31.749 32.989 28.184C36.855 23.861 39.105 18.12 39.192 12.38C40.446 11.34 41.55 10.14 42.487 8.79702C42.827 8.34602 43.029 7.78602 43.029 7.17802C43.029 6.26102 42.573 5.45102 41.876 4.96502C42.178 3.92802 41.832 2.80602 40.991 2.12102C40.501 1.72202 39.901 1.51802 39.297 1.51802C38.835 1.51802 38.371 1.63702 37.953 1.87902C37.055 2.39902 36.094 2.80802 35.082 3.10102C33.222 1.79602 30.699 0.999023 28.25 0.999023Z" fill="#FFFC00"/>
</svg>
