<svg width="53" height="44" viewBox="0 0 53 44" fill="none" xmlns="http://www.w3.org/2000/svg">
<path fill-rule="evenodd" clip-rule="evenodd" d="M39.6 22L39.589 21.8042C41.5602 21.5534 43.2432 22.825 43.9054 23.8876C42.9462 35.1538 33.5126 44 22 44C9.8494 44 0 34.1506 0 22C0 9.8494 9.8494 0 22 0C25.2934 0 28.4064 0.7436 31.2114 2.0394C31.8318 3.4386 31.625 5.5462 30.8902 6.8354C28.2766 5.2976 25.245 4.4 22 4.4C12.2958 4.4 4.4 12.2958 4.4 22C4.4 31.7042 12.2958 39.6 22 39.6C31.7042 39.6 39.6 31.7042 39.6 22ZM22 17.6C19.569 17.6 17.6 19.5712 17.6 22C17.6 24.4288 19.569 26.4 22 26.4C24.431 26.4 26.4 24.4288 26.4 22L26.3956 21.967L33.7876 17.677C35.9348 16.434 39.7364 16.9378 41.9518 18.0268L52.8 11.7282L45.8524 8.2764L46.2242 0.286L35.3452 6.6C35.1912 9.0662 33.7304 12.6192 31.5942 13.8622L24.1516 18.183C23.5136 17.8244 22.7854 17.6 22 17.6ZM13.2 22C13.2 26.8532 17.1468 30.8 22 30.8C25.8742 30.8 29.1324 28.2678 30.305 24.7852L35.1978 21.945L35.2 22C35.2 29.2908 29.2908 35.2 22 35.2C14.7092 35.2 8.8 29.2908 8.8 22C8.8 14.7092 14.7092 8.8 22 8.8C24.3848 8.8 26.6156 9.4424 28.545 10.5468L23.683 13.3694C23.1374 13.2638 22.5764 13.2 22 13.2C17.1468 13.2 13.2 17.1468 13.2 22Z" fill="#FFC300"/>
</svg>
