<svg width="16" height="16" viewBox="0 0 16 16" fill="none" xmlns="http://www.w3.org/2000/svg">
<path fill-rule="evenodd" clip-rule="evenodd" d="M11.8301 10.294L16 14.4307L14.4181 16L10.226 11.8413C9.17502 12.5553 7.90558 12.9733 6.5387 12.9733C2.93334 12.9733 0 10.064 0 6.48667C0 2.91 2.93334 0 6.5387 0C10.1447 0 13.0781 2.91 13.0781 6.48667C13.0781 7.908 12.6144 9.224 11.8301 10.294ZM6.53938 1.902C3.9911 1.902 1.91793 3.95867 1.91793 6.48667C1.91793 9.01467 3.99042 11.0713 6.53938 11.0713C9.08766 11.0713 11.1608 9.01467 11.1608 6.48667C11.1608 3.95867 9.08766 1.902 6.53938 1.902Z" fill="white"/>
</svg>
